<!-- by TradingView --><svg width="56" height="56" xmlns="http://www.w3.org/2000/svg"><path fill="#26A17B" d="M0 0h56v56H0z"/><path d="M31 30.121c-.166 0-.88.068-2.967.068-1.673 0-2.619-.05-3.033-.068-6.443-.286-11.493-1.416-11.493-2.782s5.05-2.513 11.493-2.8v4.453h6V24.54c6.426.286 11.476 1.433 11.476 2.799 0 1.349-5.05 2.496-11.476 2.782zm0-6.053V20h9v-6H16v6h9v4.067c-7.288.338-13 1.822-13 3.575 0 1.754 5.712 3.238 13 3.576V44h6V31.218c7.288-.338 13-1.822 13-3.576 0-1.753-5.712-3.22-13-3.575z" fill="#fff"/></svg>