<!-- by TradingView --><svg width="56" height="56" xmlns="http://www.w3.org/2000/svg"><path fill="#F0F3FA" d="M0 0h56v56H0z"/><path d="M16 28v15l6-4v-8l-6-3zM29 29v8l6-4v-7l-6 3z" fill="#2BBDF7"/><path d="M29 28.389l-6.328-6.73L10 17v22l6 4V28l13 9v-8.611z" fill="#2891F9"/><path d="M10 17l19 13 6-4-19-13-6 4z" fill="#2B6DEF"/><path d="M40 19.748L34 17v22l6 4V19.748z" fill="#2891F9"/><path d="M41.386 17.51L40 19.551V43l6-4V17l-4.614.51z" fill="#2BBDF7"/><path d="M40 13l-6 4 6 4 6-4-6-4z" fill="#2B6DEF"/></svg>